<?xml version="1.0" encoding="iso-8859-1"?>
<!-- Uploaded to: SVG Repo, www.svgrepo.com, Generator: SVG Repo Mixer Tools -->
<svg fill="#000000" height="800px" width="800px" version="1.1" id="Layer_1" xmlns="http://www.w3.org/2000/svg" xmlns:xlink="http://www.w3.org/1999/xlink" 
	 viewBox="0 0 512 512" xml:space="preserve">
<g>
	<g>
		<path d="M497.679,370.306h-48.347v-11.027c0-7.909-6.413-14.321-14.321-14.321c-7.908,0-14.321,6.411-14.321,14.321v11.027
			h-21.481V203.897h98.47c7.908,0,14.321-6.411,14.321-14.321c0-32.14-12.511-62.352-35.228-85.067
			c-20.612-20.612-47.401-32.786-76.196-34.871V42.952c0-7.909-6.413-14.321-14.321-14.321c-7.908,0-14.321,6.411-14.321,14.321
			v26.329h-27.081V42.952c0-7.909-6.413-14.321-14.321-14.321c-7.908,0-14.321,6.411-14.321,14.321v26.329H150.026
			c-40.073,0-77.749,15.608-106.088,43.946C15.604,141.544,0,179.218,0,219.306v165.32v84.422c0,7.909,6.411,14.321,14.321,14.321
			h483.358c7.908,0,14.321-6.411,14.321-14.321v-84.422C512,376.717,505.587,370.306,497.679,370.306z M28.642,219.306
			c0-32.435,12.622-62.914,35.546-85.824c22.931-22.931,53.415-35.56,85.838-35.56h241.679c24.49,0,47.508,9.532,64.815,26.839
			c0.056,0.056,0.107,0.115,0.163,0.17h-71.795c-7.908,0-14.321,6.411-14.321,14.321s6.413,14.321,14.321,14.321h91.145
			c2.95,6.908,5.051,14.178,6.22,21.682H150.026c-7.909,0-14.321,6.411-14.321,14.321v180.729H28.642V219.306z M370.567,203.897
			v166.409H164.346V203.897H370.567z M483.358,454.727H28.642v-55.78h121.384h333.333V454.727z"/>
	</g>
</g>
<g>
	<g>
		<path d="M82.288,271.305c-22.017,0-39.927,17.911-39.927,39.927c0,22.015,17.911,39.927,39.927,39.927
			c22.015,0,39.927-17.911,39.927-39.927C122.214,289.217,104.303,271.305,82.288,271.305z M82.288,322.517
			c-6.222,0-11.285-5.062-11.285-11.285s5.062-11.285,11.285-11.285s11.285,5.062,11.285,11.285S88.51,322.517,82.288,322.517z"/>
	</g>
</g>
<g>
	<g>
		<path d="M82.288,175.255c-22.017,0-39.927,17.911-39.927,39.927s17.911,39.927,39.927,39.927
			c22.015,0,39.927-17.911,39.927-39.927S104.303,175.255,82.288,175.255z M82.288,226.467c-6.222,0-11.285-5.062-11.285-11.285
			s5.062-11.285,11.285-11.285s11.285,5.062,11.285,11.285S88.51,226.467,82.288,226.467z"/>
	</g>
</g>
<g>
	<g>
		<path d="M337.271,124.932h-5.728c-7.908,0-14.321,6.411-14.321,14.321s6.411,14.321,14.321,14.321h5.728
			c7.908,0,14.321-6.411,14.321-14.321S345.179,124.932,337.271,124.932z"/>
	</g>
</g>
</svg>